<?xml version="1.0" encoding="UTF-8" standalone="no"?>
<!-- Created with Inkscape (http://www.inkscape.org/) -->

<svg
   width="512"
   height="512"
   viewBox="0 0 512 512"
   version="1.1"
   id="svg1"
   xml:space="preserve"
   inkscape:version="1.3.2 (091e20ef0f, 2023-11-25)"
   sodipodi:docname="gltf2meshlibrary.svg"
   xmlns:inkscape="http://www.inkscape.org/namespaces/inkscape"
   xmlns:sodipodi="http://sodipodi.sourceforge.net/DTD/sodipodi-0.dtd"
   xmlns="http://www.w3.org/2000/svg"
   xmlns:svg="http://www.w3.org/2000/svg"><sodipodi:namedview
     id="namedview1"
     pagecolor="#ffffff"
     bordercolor="#000000"
     borderopacity="0.25"
     inkscape:showpageshadow="2"
     inkscape:pageopacity="0.0"
     inkscape:pagecheckerboard="0"
     inkscape:deskcolor="#d1d1d1"
     inkscape:document-units="px"
     inkscape:zoom="1.118665"
     inkscape:cx="310.19116"
     inkscape:cy="176.10276"
     inkscape:window-width="1920"
     inkscape:window-height="1006"
     inkscape:window-x="0"
     inkscape:window-y="38"
     inkscape:window-maximized="1"
     inkscape:current-layer="layer1-5" /><defs
     id="defs1" /><g
     inkscape:label="图层 1"
     inkscape:groupmode="layer"
     id="layer1"><g
       inkscape:label="图层 1"
       id="layer1-5"
       transform="matrix(16.547488,0,0,16.547488,-2.9824816,-0.61957474)"><path
         d="m 19.735535,16.166265 a 2,2 0 1 0 -2.729,2.73 v 6.542 a 2,2 0 1 0 2.73,2.728 h 2.27 v -2 h -2.272 a 2,2 0 0 0 -0.728,-0.73 v -5.856 l 3,3 v -0.414 a 2,2 0 0 1 0.809,-1.606 l -2.395,-2.394 h 5.858 a 2,2 0 0 0 0.728,0.73 v 1.27 a 2,2 0 0 1 1,0.271 2,2 0 0 1 1,-0.271 v -1.272 a 2,2 0 1 0 -2.73,-2.728 z m 4.271,6 v 7 h 5 a 1,1 0 0 0 1,-1 v -5 a 1,1 0 0 0 -1,-1 v 4 l -1,-1 -1,1 v -4 z"
         fill="#ffca5f"
         id="path1-1" /><path
         style="fill:#43c9ff;fill-opacity:1;stroke:#000000;stroke-width:0.370394;stroke-linejoin:bevel;stroke-opacity:0;paint-order:stroke fill markers"
         d="m 17.005663,6.7540684 c 1.071463,-0.6110523 3.220595,-1.4841904 5.82854,-1.1776723 1.814953,0.3573218 2.890602,1.0963645 3.239506,3.5480427 -0.02911,1.3022252 -0.181802,2.4506152 -0.395061,3.3580232 l 2.508642,0.07901 -3.713581,1.423709 -3.599514,-1.412139 2.478551,-0.102153 0.114308,-2.281361 C 23.586885,8.3599342 23.185793,8.2816739 22.435922,7.9356902 20.554648,7.5203675 19.741504,8.474568 17.721534,9.3634018 Z"
         id="path2"
         sodipodi:nodetypes="cccccccccccc" /><path
         id="path3"
         style="fill:#fc7f7f;fill-opacity:1;stroke:#000000;stroke-width:0.569312;stroke-linejoin:bevel;stroke-opacity:0;paint-order:stroke fill markers"
         d="m 3.9722294,8.8827223 c 0.02561,3.6860667 0.2529479,3.8413417 -2.2026973,3.9046227 l 0.010339,1.978061 c 1.736389,-0.01271 3.3864522,-0.19064 3.411599,-2.135238 L 5.162239,2.632181 C 1.2457168,1.9779297 0.0809414,8.2208891 3.9722294,8.8827223 Z m 0,-4.5072141 v 2.9189872 c -0.2362176,0 -0.4305566,-0.089838 -0.5831505,-0.2379933 C 2.6757331,6.3639058 2.8746686,4.3968542 3.9722294,4.3755082 Z"
         sodipodi:nodetypes="ccccccccsc" /><path
         style="fill:#fc7f7f;fill-opacity:1;stroke:#000000;stroke-width:0.514321;stroke-linejoin:bevel;stroke-opacity:0;paint-order:stroke fill markers"
         d="m 6.1629306,2.6095764 0.062874,8.8860846 c 0.056295,2.505297 0.7366282,2.914364 2.3217009,3.098038 l -0.043692,-1.564585 c -1.0411389,-0.0048 -1.0249838,-0.09607 -1.030107,-1.672279 L 7.4973872,2.6193637 C 7.059816,2.5991761 6.6895369,2.5936853 6.1629306,2.6095764 Z"
         id="path4"
         sodipodi:nodetypes="ccccccc" /><path
         style="fill:#fc7f7f;fill-opacity:1;stroke:#000000;stroke-width:0.569312;stroke-linejoin:bevel;stroke-opacity:0;paint-order:stroke fill markers"
         d="M 9.9783564,4.2170178 H 9.3017678 v 1.5882268 h 0.7463162 l 0.0632,6.1244494 c 0.014,3.173018 1.112034,2.617336 2.454064,2.58844 l -0.03316,-1.263427 c -0.950744,0.03613 -1.065654,-0.03602 -1.092104,-1.307465 L 11.303656,5.8052446 h 0.779162 l -0.02723,-1.5706793 -0.844901,-0.017547 0.02325,-1.5882268 H 9.9086308 Z"
         id="path16"
         sodipodi:nodetypes="ccccccccccccccc" /><path
         style="fill:#fc7f7f;fill-opacity:1;stroke:#000000;stroke-width:0.59477;stroke-linejoin:bevel;stroke-opacity:0;paint-order:stroke fill markers"
         d="m 15.685035,2.6184771 c -1.772451,-0.024584 -2.533408,0.092376 -2.474126,1.7336615 l 0.03593,10.1345404 1.194446,-0.0043 0.0034,-6.2860931 1.257948,-0.044391 -0.01294,-1.1717121 -1.314187,0.02733 c -0.07499,-3.1158914 -0.108175,-3.157718 1.293388,-3.1188954 z"
         id="path17"
         sodipodi:nodetypes="cccccccccc" /><g
         transform="matrix(0.0128125,0,0,0.0128125,1.5242337,15.574234)"
         id="g7"><g
           fill="#ffffff"
           id="g4"><path
             d="m 105,673 v 33 q 407,354 814,0 v -33 z"
             id="path1" /><path
             d="m 105,673 152,14 q 12,1 15,14 l 4,67 132,10 8,-61 q 2,-11 15,-15 h 162 q 13,4 15,15 l 8,61 132,-10 4,-67 q 3,-13 15,-14 L 919,673 V 427 q 30,-39 56,-81 -35,-59 -83,-108 -43,20 -82,47 -40,-37 -88,-64 7,-51 8,-102 -59,-28 -123,-42 -26,43 -46,89 -49,-7 -98,0 -20,-46 -46,-89 -64,14 -123,42 1,51 8,102 -48,27 -88,64 -39,-27 -82,-47 -48,49 -83,108 26,42 56,81 z m 0,33 v 39 c 0,276 813,276 814,0 v -39 l -134,12 -5,69 q -2,10 -14,13 l -162,11 q -12,0 -16,-11 L 578,735 H 446 l -10,65 q -4,11 -16,11 L 258,800 q -12,-3 -14,-13 l -5,-69 z"
             fill="#478cbf"
             id="path2-2" /><path
             d="m 483,600 c 0,34 58,34 58,0 v -86 c 0,-34 -58,-34 -58,0 z"
             id="path3-0" /><circle
             cx="725"
             cy="526"
             r="90"
             id="circle3" /><circle
             cx="299"
             cy="526"
             r="90"
             id="circle4" /></g><g
           fill="#414042"
           id="g6"><circle
             cx="307"
             cy="532"
             r="60"
             id="circle5" /><circle
             cx="717"
             cy="532"
             r="60"
             id="circle6" /></g></g></g></g></svg>
