{"asset":{"version":"2.0","generator":"Blockbench 4.10.3 glTF exporter"},"scenes":[{"nodes":[24],"name":"blockbench_export"}],"scene":0,"nodes":[{"translation":[6,0,0],"name":"Grass","mesh":0},{"name":"Mesh","mesh":1},{"name":"--collision","mesh":2},{"translation":[2,0,0],"name":"MudBlock","children":[1,2]},{"name":"Mesh","mesh":3},{"translation":[0,0.25,0],"name":"--collision","mesh":4},{"name":"GrassBlock","children":[4,5]},{"rotation":[0,0.2798290140309921,0,0.9600498543859287],"translation":[0.1875,0,-0.25],"name":"TinyStone1","mesh":5},{"rotation":[0,-0.19509032201612825,0,0.9807852804032304],"translation":[0.25,0,0.1875],"name":"TinyStone3","mesh":6},{"rotation":[0,0.6755902076156601,0,0.7372773368101241],"translation":[-0.1875,0,0.25],"name":"TinyStone4","mesh":7},{"rotation":[0,0.3007057995042731,0,0.9537169507482269],"translation":[-0.25,0,-0.25],"name":"TinyStone2","mesh":8},{"translation":[-2,0,0],"name":"TinyStones","children":[7,8,9,10]},{"name":"Mesh","mesh":9},{"name":"--collision","mesh":10},{"translation":[0,0,2],"name":"GrassBevel","children":[12,13]},{"name":"Mesh","mesh":11},{"name":"--collision","mesh":12},{"translation":[2,0,2],"name":"MudBevel","children":[15,16]},{"name":"Mesh","mesh":13},{"name":"--collision","mesh":14},{"translation":[4,0,0],"name":"PlankBlock","children":[18,19]},{"name":"Mesh","mesh":15},{"name":"--collision","mesh":16},{"translation":[4,0,2],"name":"PlankStairs","children":[21,22]},{"children":[0,3,6,11,14,17,20,23]}],"bufferViews":[{"buffer":0,"byteOffset":0,"byteLength":96,"target":34962,"byteStride":12},{"buffer":0,"byteOffset":96,"byteLength":96,"target":34962,"byteStride":12},{"buffer":0,"byteOffset":192,"byteLength":64,"target":34962,"byteStride":8},{"buffer":0,"byteOffset":256,"byteLength":24,"target":34963},{"buffer":0,"byteOffset":280,"byteLength":288,"target":34962,"byteStride":12},{"buffer":0,"byteOffset":568,"byteLength":288,"target":34962,"byteStride":12},{"buffer":0,"byteOffset":856,"byteLength":192,"target":34962,"byteStride":8},{"buffer":0,"byteOffset":1048,"byteLength":72,"target":34963},{"buffer":0,"byteOffset":1120,"byteLength":288,"target":34962,"byteStride":12},{"buffer":0,"byteOffset":1408,"byteLength":288,"target":34962,"byteStride":12},{"buffer":0,"byteOffset":1696,"byteLength":192,"target":34962,"byteStride":8},{"buffer":0,"byteOffset":1888,"byteLength":72,"target":34963},{"buffer":0,"byteOffset":1960,"byteLength":480,"target":34962,"byteStride":12},{"buffer":0,"byteOffset":2440,"byteLength":480,"target":34962,"byteStride":12},{"buffer":0,"byteOffset":2920,"byteLength":320,"target":34962,"byteStride":8},{"buffer":0,"byteOffset":3240,"byteLength":120,"target":34963},{"buffer":0,"byteOffset":3360,"byteLength":288,"target":34962,"byteStride":12},{"buffer":0,"byteOffset":3648,"byteLength":288,"target":34962,"byteStride":12},{"buffer":0,"byteOffset":3936,"byteLength":192,"target":34962,"byteStride":8},{"buffer":0,"byteOffset":4128,"byteLength":72,"target":34963},{"buffer":0,"byteOffset":4200,"byteLength":288,"target":34962,"byteStride":12},{"buffer":0,"byteOffset":4488,"byteLength":288,"target":34962,"byteStride":12},{"buffer":0,"byteOffset":4776,"byteLength":192,"target":34962,"byteStride":8},{"buffer":0,"byteOffset":4968,"byteLength":72,"target":34963},{"buffer":0,"byteOffset":5040,"byteLength":288,"target":34962,"byteStride":12},{"buffer":0,"byteOffset":5328,"byteLength":288,"target":34962,"byteStride":12},{"buffer":0,"byteOffset":5616,"byteLength":192,"target":34962,"byteStride":8},{"buffer":0,"byteOffset":5808,"byteLength":72,"target":34963},{"buffer":0,"byteOffset":5880,"byteLength":288,"target":34962,"byteStride":12},{"buffer":0,"byteOffset":6168,"byteLength":288,"target":34962,"byteStride":12},{"buffer":0,"byteOffset":6456,"byteLength":192,"target":34962,"byteStride":8},{"buffer":0,"byteOffset":6648,"byteLength":72,"target":34963},{"buffer":0,"byteOffset":6720,"byteLength":288,"target":34962,"byteStride":12},{"buffer":0,"byteOffset":7008,"byteLength":288,"target":34962,"byteStride":12},{"buffer":0,"byteOffset":7296,"byteLength":192,"target":34962,"byteStride":8},{"buffer":0,"byteOffset":7488,"byteLength":72,"target":34963},{"buffer":0,"byteOffset":7560,"byteLength":312,"target":34962,"byteStride":12},{"buffer":0,"byteOffset":7872,"byteLength":312,"target":34962,"byteStride":12},{"buffer":0,"byteOffset":8184,"byteLength":208,"target":34962,"byteStride":8},{"buffer":0,"byteOffset":8392,"byteLength":72,"target":34963},{"buffer":0,"byteOffset":8464,"byteLength":216,"target":34962,"byteStride":12},{"buffer":0,"byteOffset":8680,"byteLength":216,"target":34962,"byteStride":12},{"buffer":0,"byteOffset":8896,"byteLength":144,"target":34962,"byteStride":8},{"buffer":0,"byteOffset":9040,"byteLength":48,"target":34963},{"buffer":0,"byteOffset":9088,"byteLength":216,"target":34962,"byteStride":12},{"buffer":0,"byteOffset":9304,"byteLength":216,"target":34962,"byteStride":12},{"buffer":0,"byteOffset":9520,"byteLength":144,"target":34962,"byteStride":8},{"buffer":0,"byteOffset":9664,"byteLength":48,"target":34963},{"buffer":0,"byteOffset":9712,"byteLength":216,"target":34962,"byteStride":12},{"buffer":0,"byteOffset":9928,"byteLength":216,"target":34962,"byteStride":12},{"buffer":0,"byteOffset":10144,"byteLength":144,"target":34962,"byteStride":8},{"buffer":0,"byteOffset":10288,"byteLength":48,"target":34963},{"buffer":0,"byteOffset":10336,"byteLength":1248,"target":34962,"byteStride":12},{"buffer":0,"byteOffset":11584,"byteLength":1248,"target":34962,"byteStride":12},{"buffer":0,"byteOffset":12832,"byteLength":832,"target":34962,"byteStride":8},{"buffer":0,"byteOffset":13664,"byteLength":312,"target":34963},{"buffer":0,"byteOffset":13976,"byteLength":288,"target":34962,"byteStride":12},{"buffer":0,"byteOffset":14264,"byteLength":288,"target":34962,"byteStride":12},{"buffer":0,"byteOffset":14552,"byteLength":192,"target":34962,"byteStride":8},{"buffer":0,"byteOffset":14744,"byteLength":72,"target":34963},{"buffer":0,"byteOffset":14816,"byteLength":1248,"target":34962,"byteStride":12},{"buffer":0,"byteOffset":16064,"byteLength":1248,"target":34962,"byteStride":12},{"buffer":0,"byteOffset":17312,"byteLength":832,"target":34962,"byteStride":8},{"buffer":0,"byteOffset":18144,"byteLength":312,"target":34963},{"buffer":0,"byteOffset":18456,"byteLength":216,"target":34962,"byteStride":12},{"buffer":0,"byteOffset":18672,"byteLength":216,"target":34962,"byteStride":12},{"buffer":0,"byteOffset":18888,"byteLength":144,"target":34962,"byteStride":8},{"buffer":0,"byteOffset":19032,"byteLength":48,"target":34963}],"buffers":[{"byteLength":19080,"uri":"data:application/octet-stream;base64,"}],"accessors":[{"bufferView":0,"componentType":5126,"count":8,"max":[0.3535533845424652,1,0.3535533845424652],"min":[-0.3535533845424652,6.661338147750939e-16,-0.3535533845424652],"type":"VEC3"},{"bufferView":1,"componentType":5126,"count":8,"max":[0.7071067690849304,0,0.7071067690849304],"min":[0.7071067690849304,0,-0.7071067690849304],"type":"VEC3"},{"bufferView":2,"componentType":5126,"count":8,"max":[1,1],"min":[0,0],"type":"VEC2"},{"bufferView":3,"componentType":5123,"count":12,"max":[7],"min":[0],"type":"SCALAR"},{"bufferView":4,"componentType":5126,"count":24,"max":[0.5,1,0.5],"min":[-0.5,0,-0.5],"type":"VEC3"},{"bufferView":5,"componentType":5126,"count":24,"max":[1,1,1],"min":[-1,-1,-1],"type":"VEC3"},{"bufferView":6,"componentType":5126,"count":24,"max":[0.25,0.25],"min":[0,0],"type":"VEC2"},{"bufferView":7,"componentType":5123,"count":36,"max":[23],"min":[0],"type":"SCALAR"},{"bufferView":8,"componentType":5126,"count":24,"max":[0.5,1,0.5],"min":[-0.5,0,-0.5],"type":"VEC3"},{"bufferView":9,"componentType":5126,"count":24,"max":[1,1,1],"min":[-1,-1,-1],"type":"VEC3"},{"bufferView":10,"componentType":5126,"count":24,"max":[0.25,0.25],"min":[0,0],"type":"VEC2"},{"bufferView":11,"componentType":5123,"count":36,"max":[23],"min":[0],"type":"SCALAR"},{"bufferView":12,"componentType":5126,"count":40,"max":[0.5625,1,0.5625],"min":[-0.5625,0,-0.5625],"type":"VEC3"},{"bufferView":13,"componentType":5126,"count":40,"max":[1,1,1],"min":[-1,-1,-1],"type":"VEC3"},{"bufferView":14,"componentType":5126,"count":40,"max":[0.78125,0.78125],"min":[0,0],"type":"VEC2"},{"bufferView":15,"componentType":5123,"count":60,"max":[39],"min":[0],"type":"SCALAR"},{"bufferView":16,"componentType":5126,"count":24,"max":[0.5,0.75,0.5],"min":[-0.5,-0.25,-0.5],"type":"VEC3"},{"bufferView":17,"componentType":5126,"count":24,"max":[1,1,1],"min":[-1,-1,-1],"type":"VEC3"},{"bufferView":18,"componentType":5126,"count":24,"max":[0.25,0.25],"min":[0,0],"type":"VEC2"},{"bufferView":19,"componentType":5123,"count":36,"max":[23],"min":[0],"type":"SCALAR"},{"bufferView":20,"componentType":5126,"count":24,"max":[0.125,0.0625,0.125],"min":[-0.15135598182678223,0,-0.125],"type":"VEC3"},{"bufferView":21,"componentType":5126,"count":24,"max":[0.7071067690849304,1,0.7454562187194824],"min":[-0.5232820510864258,-1,-0.7071067690849304],"type":"VEC3"},{"bufferView":22,"componentType":5126,"count":24,"max":[0.5625,0.5],"min":[0,0],"type":"VEC2"},{"bufferView":23,"componentType":5123,"count":36,"max":[23],"min":[0],"type":"SCALAR"},{"bufferView":24,"componentType":5126,"count":24,"max":[0.125,0.078125,0.125],"min":[-0.15489713847637177,0,-0.125],"type":"VEC3"},{"bufferView":25,"componentType":5126,"count":24,"max":[0.7071067690849304,0.9935551285743713,0.7442212104797363],"min":[-0.7047197222709656,-1,-0.6556100845336914],"type":"VEC3"},{"bufferView":26,"componentType":5126,"count":24,"max":[0.5625,0.5],"min":[0,0],"type":"VEC2"},{"bufferView":27,"componentType":5123,"count":36,"max":[23],"min":[0],"type":"SCALAR"},{"bufferView":28,"componentType":5126,"count":24,"max":[0.078125,0.09375,0.078125],"min":[-0.08084861934185028,0,-0.1092560812830925],"type":"VEC3"},{"bufferView":29,"componentType":5126,"count":24,"max":[0.8700628280639648,0.9514859914779663,0.9105743765830994],"min":[-0.752931535243988,-1,-0.9333264827728271],"type":"VEC3"},{"bufferView":30,"componentType":5126,"count":24,"max":[0.5625,0.5],"min":[0,0],"type":"VEC2"},{"bufferView":31,"componentType":5123,"count":36,"max":[23],"min":[0],"type":"SCALAR"},{"bufferView":32,"componentType":5126,"count":24,"max":[0.12754923105239868,0.09375,0.22100766003131866],"min":[-0.12245077639818192,0,-0.046916600316762924],"type":"VEC3"},{"bufferView":33,"componentType":5126,"count":24,"max":[0.8665375709533691,0.9550687670707703,0.8219131827354431],"min":[-0.6209936738014221,-1,-0.588348388671875],"type":"VEC3"},{"bufferView":34,"componentType":5126,"count":24,"max":[0.5625,0.5],"min":[0,0],"type":"VEC2"},{"bufferView":35,"componentType":5123,"count":36,"max":[23],"min":[0],"type":"SCALAR"},{"bufferView":36,"componentType":5126,"count":26,"max":[0.5625,1,0.5],"min":[-0.5625,-0.3125,-0.5],"type":"VEC3"},{"bufferView":37,"componentType":5126,"count":26,"max":[0.9644155502319336,0.7071067690849304,0.7071067690849304],"min":[-1,-1,-1],"type":"VEC3"},{"bufferView":38,"componentType":5126,"count":26,"max":[0.78125,0.515625],"min":[0,0],"type":"VEC2"},{"bufferView":39,"componentType":5123,"count":36,"max":[25],"min":[0],"type":"SCALAR"},{"bufferView":40,"componentType":5126,"count":18,"max":[0.5,1,0.5],"min":[-0.5,0,-0.5],"type":"VEC3"},{"bufferView":41,"componentType":5126,"count":18,"max":[0,0.7071067690849304,0.7071067690849304],"min":[-1,-1,-1],"type":"VEC3"},{"bufferView":42,"componentType":5126,"count":18,"max":[0.25,0.25],"min":[0,0],"type":"VEC2"},{"bufferView":43,"componentType":5123,"count":24,"max":[17],"min":[0],"type":"SCALAR"},{"bufferView":44,"componentType":5126,"count":18,"max":[0.5,1,0.5],"min":[-0.5,0,-0.5],"type":"VEC3"},{"bufferView":45,"componentType":5126,"count":18,"max":[0,0.7071067690849304,0.7071067690849304],"min":[-1,-1,-1],"type":"VEC3"},{"bufferView":46,"componentType":5126,"count":18,"max":[0.25,0.25],"min":[0,0],"type":"VEC2"},{"bufferView":47,"componentType":5123,"count":24,"max":[17],"min":[0],"type":"SCALAR"},{"bufferView":48,"componentType":5126,"count":18,"max":[0.5,1,0.5],"min":[-0.5,0,-0.5],"type":"VEC3"},{"bufferView":49,"componentType":5126,"count":18,"max":[0,0.7071067690849304,0.7071067690849304],"min":[-1,-1,-1],"type":"VEC3"},{"bufferView":50,"componentType":5126,"count":18,"max":[0.25,0.25],"min":[0,0],"type":"VEC2"},{"bufferView":51,"componentType":5123,"count":24,"max":[17],"min":[0],"type":"SCALAR"},{"bufferView":52,"componentType":5126,"count":104,"max":[0.5,1,0.5],"min":[-0.5,0,-0.5],"type":"VEC3"},{"bufferView":53,"componentType":5126,"count":104,"max":[1,1,1],"min":[-1,-1,-1],"type":"VEC3"},{"bufferView":54,"componentType":5126,"count":104,"max":[0.78125,0.78125],"min":[0,0],"type":"VEC2"},{"bufferView":55,"componentType":5123,"count":156,"max":[103],"min":[0],"type":"SCALAR"},{"bufferView":56,"componentType":5126,"count":24,"max":[0.5,1,0.5],"min":[-0.5,0,-0.5],"type":"VEC3"},{"bufferView":57,"componentType":5126,"count":24,"max":[1,1,1],"min":[-1,-1,-1],"type":"VEC3"},{"bufferView":58,"componentType":5126,"count":24,"max":[0.25,0.25],"min":[0,0],"type":"VEC2"},{"bufferView":59,"componentType":5123,"count":36,"max":[23],"min":[0],"type":"SCALAR"},{"bufferView":60,"componentType":5126,"count":104,"max":[0.5,1,0.5],"min":[-0.5,0,-0.5],"type":"VEC3"},{"bufferView":61,"componentType":5126,"count":104,"max":[1,1,1],"min":[-1,-1,-1],"type":"VEC3"},{"bufferView":62,"componentType":5126,"count":104,"max":[0.78125,0.78125],"min":[0,0],"type":"VEC2"},{"bufferView":63,"componentType":5123,"count":156,"max":[103],"min":[0],"type":"SCALAR"},{"bufferView":64,"componentType":5126,"count":18,"max":[0.5,1,0.5],"min":[-0.5,0,-0.5],"type":"VEC3"},{"bufferView":65,"componentType":5126,"count":18,"max":[0,0.7071067690849304,0.7071067690849304],"min":[-1,-1,-1],"type":"VEC3"},{"bufferView":66,"componentType":5126,"count":18,"max":[0.25,0.25],"min":[0,0],"type":"VEC2"},{"bufferView":67,"componentType":5123,"count":24,"max":[17],"min":[0],"type":"SCALAR"}],"materials":[{"pbrMetallicRoughness":{"metallicFactor":0,"roughnessFactor":1,"baseColorTexture":{"index":0}},"alphaMode":"MASK","alphaCutoff":0.05,"doubleSided":true},{"pbrMetallicRoughness":{"metallicFactor":0,"roughnessFactor":1,"baseColorTexture":{"index":1}},"alphaMode":"MASK","alphaCutoff":0.05,"doubleSided":true},{"pbrMetallicRoughness":{"metallicFactor":0,"roughnessFactor":1},"alphaMode":"MASK","alphaCutoff":0.05,"doubleSided":true},{"pbrMetallicRoughness":{"metallicFactor":0,"roughnessFactor":1,"baseColorTexture":{"index":2}},"alphaMode":"MASK","alphaCutoff":0.05,"doubleSided":true},{"pbrMetallicRoughness":{"metallicFactor":0,"roughnessFactor":1,"baseColorTexture":{"index":3}},"alphaMode":"MASK","alphaCutoff":0.05,"doubleSided":true}],"textures":[{"sampler":0,"source":0,"name":"grass-texture.png"},{"sampler":1,"source":1,"name":"grass-block-texture.png"},{"sampler":2,"source":2,"name":"tiny-stones-texture.png"},{"sampler":3,"source":3,"name":"wood-plank-texture.png"}],"samplers":[{"magFilter":9728,"minFilter":9728,"wrapS":33071,"wrapT":33071},{"magFilter":9728,"minFilter":9728,"wrapS":33071,"wrapT":33071},{"magFilter":9728,"minFilter":9728,"wrapS":33071,"wrapT":33071},{"magFilter":9728,"minFilter":9728,"wrapS":33071,"wrapT":33071}],"images":[{"mimeType":"image/png","uri":"data:image/png;base64,"},{"mimeType":"image/png","uri":"data:image/png;base64,"},{"mimeType":"image/png","uri":"data:image/png;base64,"},{"mimeType":"image/png","uri":"data:image/png;base64,"}],"meshes":[{"primitives":[{"mode":4,"attributes":{"POSITION":0,"NORMAL":1,"TEXCOORD_0":2},"indices":3,"material":0}]},{"primitives":[{"mode":4,"attributes":{"POSITION":4,"NORMAL":5,"TEXCOORD_0":6},"indices":7,"material":1}]},{"primitives":[{"mode":4,"attributes":{"POSITION":8,"NORMAL":9,"TEXCOORD_0":10},"indices":11,"material":2}]},{"primitives":[{"mode":4,"attributes":{"POSITION":12,"NORMAL":13,"TEXCOORD_0":14},"indices":15,"material":1}]},{"primitives":[{"mode":4,"attributes":{"POSITION":16,"NORMAL":17,"TEXCOORD_0":18},"indices":19,"material":2}]},{"primitives":[{"mode":4,"attributes":{"POSITION":20,"NORMAL":21,"TEXCOORD_0":22},"indices":23,"material":3}]},{"primitives":[{"mode":4,"attributes":{"POSITION":24,"NORMAL":25,"TEXCOORD_0":26},"indices":27,"material":3}]},{"primitives":[{"mode":4,"attributes":{"POSITION":28,"NORMAL":29,"TEXCOORD_0":30},"indices":31,"material":3}]},{"primitives":[{"mode":4,"attributes":{"POSITION":32,"NORMAL":33,"TEXCOORD_0":34},"indices":35,"material":3}]},{"primitives":[{"mode":4,"attributes":{"POSITION":36,"NORMAL":37,"TEXCOORD_0":38},"indices":39,"material":1}]},{"primitives":[{"mode":4,"attributes":{"POSITION":40,"NORMAL":41,"TEXCOORD_0":42},"indices":43,"material":2}]},{"primitives":[{"mode":4,"attributes":{"POSITION":44,"NORMAL":45,"TEXCOORD_0":46},"indices":47,"material":1}]},{"primitives":[{"mode":4,"attributes":{"POSITION":48,"NORMAL":49,"TEXCOORD_0":50},"indices":51,"material":2}]},{"primitives":[{"mode":4,"attributes":{"POSITION":52,"NORMAL":53,"TEXCOORD_0":54},"indices":55,"material":4}]},{"primitives":[{"mode":4,"attributes":{"POSITION":56,"NORMAL":57,"TEXCOORD_0":58},"indices":59,"material":2}]},{"primitives":[{"mode":4,"attributes":{"POSITION":60,"NORMAL":61,"TEXCOORD_0":62},"indices":63,"material":4}]},{"primitives":[{"mode":4,"attributes":{"POSITION":64,"NORMAL":65,"TEXCOORD_0":66},"indices":67,"material":2}]}]}